<svg id="Layer_1" data-name="Layer 1" xmlns="http://www.w3.org/2000/svg" viewBox="0 0 809 809"><defs><style>.cls-1{fill:#de0607;}.cls-1,.cls-2,.cls-3{stroke:#ffbf17;stroke-miterlimit:10;stroke-width:9px;}.cls-2{fill:#181818;}.cls-3{fill:none;}</style></defs><path class="cls-1" d="M1360,262.62v137L819.63,940h-137a121.58,121.58,0,0,1-49.93-10.69l-1.63-.74,717.5-717.51A121.42,121.42,0,0,1,1360,262.62Z" transform="translate(-555.5 -135.5)"/><path class="cls-2" d="M1348.56,211.06,631.06,928.57C589.19,909,560,866.43,560,817.38V799.62L1219.62,140h17.76C1286.43,140,1329,169.19,1348.56,211.06Z" transform="translate(-555.5 -135.5)"/><polygon class="cls-1" points="664.12 4.5 4.5 664.12 4.5 464.12 464.13 4.5 664.12 4.5"/><polygon class="cls-2" points="464.13 4.5 4.5 464.12 4.5 266.5 266.5 4.5 464.13 4.5"/><path class="cls-1" d="M822,140,560,402V262.62C560,195.18,615.18,140,682.62,140Z" transform="translate(-555.5 -135.5)"/><path class="cls-3" d="M875.35,686.65,632.69,929.31Z" transform="translate(-555.5 -135.5)"/><polygon class="cls-2" points="804.5 264.12 804.5 464.13 464.13 804.5 264.13 804.5 804.5 264.12"/><polygon class="cls-1" points="804.5 464.13 804.5 664.13 664.13 804.5 464.13 804.5 804.5 464.13"/><path class="cls-2" d="M1360,799.63v17.75c0,67.44-55.18,122.62-122.62,122.62h-17.75Z" transform="translate(-555.5 -135.5)"/></svg>